<svg width="38" height="41" viewBox="0 0 38 41" fill="none" xmlns="http://www.w3.org/2000/svg">
<path d="M19.0002 0.696533L37.6107 7.32811L34.7896 31.9597L19.0002 40.6965L3.2107 31.9597L0.389648 7.32811L19.0002 0.696533ZM19.0002 5.11759L7.35807 31.2229H11.6949L14.0318 25.3702H23.9265L26.2633 31.2229H30.5791L19.0002 5.11759ZM22.4107 21.7492H15.6107L19.0002 13.6018L22.4107 21.7492Z" fill="#56575A"/>
<path d="M19.0002 0.696533L37.6107 7.32811L34.7896 31.9597L19.0002 40.6965L3.2107 31.9597L0.389648 7.32811L19.0002 0.696533ZM19.0002 5.11759L7.35807 31.2229H11.6949L14.0318 25.3702H23.9265L26.2633 31.2229H30.5791L19.0002 5.11759ZM22.4107 21.7492H15.6107L19.0002 13.6018L22.4107 21.7492Z" fill="#C7C8C9"/>
</svg>
