<svg width="54" height="41" viewBox="0 0 54 41" fill="none" xmlns="http://www.w3.org/2000/svg">
<path d="M46.259 23.691C44.3983 23.7007 42.781 24.1488 41.4269 24.8113C40.9299 23.8273 40.433 22.9506 40.3455 22.3075C40.2479 21.5575 40.1311 21.0995 40.2479 20.2032C40.3649 19.3069 40.891 18.0306 40.8812 17.9332C40.8716 17.8359 40.7642 17.3779 39.6926 17.3683C38.621 17.3585 37.6955 17.5728 37.5883 17.8553C37.4811 18.1378 37.2766 18.7808 37.1401 19.4431C36.955 20.4176 34.997 23.8954 33.8767 25.7172C33.5161 25.0062 33.2044 24.3826 33.1361 23.8858C33.0387 23.1357 32.9217 22.6778 33.0387 21.7815C33.1557 20.8852 33.6818 19.609 33.672 19.5115C33.6621 19.4141 33.555 18.9561 32.4834 18.9465C31.4116 18.9367 30.486 19.1511 30.379 19.4335C30.2719 19.7162 30.1549 20.3785 29.9309 21.0216C29.7067 21.6647 27.1056 27.4712 26.4236 28.9713C26.1481 29.5784 25.859 30.1794 25.5566 30.7737C25.5566 30.7737 25.5468 30.8029 25.5175 30.8516C25.4225 31.038 25.3252 31.2231 25.2254 31.4069V31.4165C25.0792 31.6798 24.9233 31.9232 24.8454 31.9232C24.7869 31.9232 24.6797 31.2218 24.8648 30.267C25.2545 28.2505 26.18 25.1134 26.1704 25.0062C26.1704 24.9477 26.3457 24.4022 25.5664 24.1196C24.8063 23.8371 24.5337 24.3047 24.4654 24.3047C24.3973 24.3047 24.3484 24.4703 24.3484 24.4703C24.3484 24.4703 25.1962 20.9437 22.7313 20.9437C21.1921 20.9437 19.0681 22.6291 18.016 24.1488C16.8199 24.7997 15.6248 25.4525 14.4308 26.1071C13.8562 26.4286 13.2618 26.7502 12.7065 27.0521C12.6674 27.0132 12.6286 26.9643 12.5895 26.9255C9.60833 23.7397 4.09433 21.4892 4.32812 17.2124C4.41587 15.6536 4.95156 11.5618 14.918 6.59328C23.1209 2.55012 29.6484 3.67038 30.7785 6.15474C32.3956 9.70107 27.2811 16.2869 18.8051 17.2415C15.5707 17.6021 13.8755 16.355 13.447 15.8874C12.9988 15.4002 12.9305 15.3709 12.7648 15.4685C12.4922 15.6148 12.6674 16.0531 12.7648 16.3063C13.0182 16.9686 14.0606 18.1378 15.8239 18.7127C17.3827 19.2192 21.1725 19.5018 25.7611 17.7287C30.8953 15.7412 34.9092 10.2173 33.7304 5.5898C32.5515 0.893949 24.7577 -0.655038 17.3827 1.96554C12.9988 3.52455 8.24446 5.97945 4.82494 9.17499C0.762354 12.9743 0.119277 16.2771 0.382316 17.6606C1.3275 22.5706 8.09842 25.7661 10.8067 28.1335C10.6703 28.2114 10.5435 28.2797 10.4365 28.3382C9.08226 29.0103 3.91883 31.7088 2.63288 34.5634C1.17164 37.7978 2.86688 40.1167 3.98715 40.4282C7.46516 41.3928 11.0405 39.6587 12.9597 36.7943C14.8789 33.9302 14.6452 30.2085 13.7587 28.5037C13.7489 28.4843 13.7392 28.4646 13.7196 28.4452C14.0704 28.2406 14.4308 28.0263 14.7816 27.8217C15.4263 27.4406 16.0792 27.0735 16.7399 26.7207C16.4085 27.6268 16.1649 28.7082 16.0481 30.267C15.9019 32.0987 16.6519 34.4757 17.6359 35.4108C18.0745 35.8203 18.5907 35.8299 18.9221 35.8299C20.0716 35.8299 20.5881 34.8751 21.1628 33.745C21.8642 32.3617 22.4975 30.7542 22.4975 30.7542C22.4975 30.7542 21.7084 35.0993 23.8517 35.0993C24.631 35.0993 25.4202 34.086 25.7709 33.5698V33.5794C25.7709 33.5794 25.7904 33.5501 25.8294 33.482C25.9074 33.3554 25.9561 33.2773 25.9561 33.2773V33.258C26.2678 32.7123 26.9694 31.475 28.0117 29.4194C29.3561 26.7696 30.6519 23.4573 30.6519 23.4573C30.6519 23.4573 30.7689 24.2658 31.1682 25.6103C31.4022 26.3994 31.889 27.2664 32.2788 28.1042C31.9671 28.5428 31.7722 28.7862 31.7722 28.7862L31.782 28.796C31.5286 29.1271 31.2559 29.4875 30.9538 29.8385C29.8918 31.1048 28.6255 32.5567 28.45 32.9754C28.2453 33.4722 28.2942 33.8328 28.684 34.1251C28.9665 34.3394 29.4729 34.3685 29.9894 34.3394C30.9442 34.2711 31.6163 34.0373 31.9475 33.8913C32.4639 33.7062 33.0679 33.4235 33.6329 33.0046C34.6754 32.2349 35.3085 31.1341 35.2502 29.6827C35.2209 28.8837 34.9579 28.0848 34.6364 27.3345C34.7339 27.1983 34.8215 27.0619 34.919 26.9255C36.5654 24.519 37.8417 21.8788 37.8417 21.8788C37.8417 21.8788 37.9587 22.6874 38.358 24.032C38.5529 24.714 38.9524 25.4544 39.303 26.1752C37.754 27.4321 36.7992 28.8933 36.4582 29.8481C35.8446 31.6213 36.3218 32.42 37.2279 32.6051C37.637 32.6929 38.2215 32.498 38.6503 32.3128C39.1958 32.1376 39.8389 31.8357 40.4527 31.3873C41.4952 30.6178 42.4985 29.546 42.44 28.0946C42.4108 27.4321 42.2355 26.7792 41.9919 26.1459C43.307 25.6006 45.0023 25.2985 47.1649 25.5518C51.8024 26.0973 52.7182 28.9907 52.5427 30.2087C52.3674 31.4264 51.3932 32.0889 51.0718 32.2934C50.7501 32.4982 50.6431 32.5663 50.6724 32.7123C50.7112 32.9267 50.8671 32.9171 51.1399 32.878C51.52 32.8099 53.5756 31.8939 53.6632 29.6532C53.8094 26.789 51.0814 23.6618 46.259 23.691ZM10.4852 35.752C8.94583 37.4276 6.80265 38.0609 5.8771 37.5252C4.88344 36.9502 5.27309 34.4757 7.16305 32.7027C8.31257 31.6213 9.79344 30.6176 10.7775 30.004C11.0015 29.8676 11.3328 29.6728 11.7323 29.4292C11.8004 29.3902 11.8395 29.3707 11.8395 29.3707L12.0733 29.2245C12.7648 31.7575 12.1025 33.9887 10.4852 35.752ZM21.6889 28.1335C21.153 29.4391 20.0328 32.7806 19.3508 32.5955C18.7662 32.4397 18.4056 29.9066 19.2338 27.4028C19.6527 26.1459 20.5392 24.6456 21.0557 24.0613C21.8935 23.1259 22.819 22.814 23.043 23.1942C23.3257 23.691 22.0201 27.3151 21.6889 28.1335ZM30.9344 32.5565C30.7102 32.6735 30.496 32.7514 30.3985 32.6929C30.3304 32.6538 30.496 32.498 30.496 32.498C30.496 32.498 31.6554 31.2511 32.1131 30.6859C32.3764 30.3548 32.6879 29.9651 33.0193 29.5266V29.6532C33.0193 31.1439 31.5772 32.1474 30.9342 32.5565H30.9344ZM38.0657 30.9295C37.9 30.8125 37.9293 30.4229 38.4846 29.2051C38.699 28.7277 39.2054 27.9289 40.0726 27.1592C40.17 27.471 40.2383 27.7731 40.2285 28.0555C40.2187 29.9359 38.8744 30.6373 38.0657 30.9295Z" fill="#56575A"/>
<path d="M46.259 23.691C44.3983 23.7007 42.781 24.1488 41.4269 24.8113C40.9299 23.8273 40.433 22.9506 40.3455 22.3075C40.2479 21.5575 40.1311 21.0995 40.2479 20.2032C40.3649 19.3069 40.891 18.0306 40.8812 17.9332C40.8716 17.8359 40.7642 17.3779 39.6926 17.3683C38.621 17.3585 37.6955 17.5728 37.5883 17.8553C37.4811 18.1378 37.2766 18.7808 37.1401 19.4431C36.955 20.4176 34.997 23.8954 33.8767 25.7172C33.5161 25.0062 33.2044 24.3826 33.1361 23.8858C33.0387 23.1357 32.9217 22.6778 33.0387 21.7815C33.1557 20.8852 33.6818 19.609 33.672 19.5115C33.6621 19.4141 33.555 18.9561 32.4834 18.9465C31.4116 18.9367 30.486 19.1511 30.379 19.4335C30.2719 19.7162 30.1549 20.3785 29.9309 21.0216C29.7067 21.6647 27.1056 27.4712 26.4236 28.9713C26.1481 29.5784 25.859 30.1794 25.5566 30.7737C25.5566 30.7737 25.5468 30.8029 25.5175 30.8516C25.4225 31.038 25.3252 31.2231 25.2254 31.4069V31.4165C25.0792 31.6798 24.9233 31.9232 24.8454 31.9232C24.7869 31.9232 24.6797 31.2218 24.8648 30.267C25.2545 28.2505 26.18 25.1134 26.1704 25.0062C26.1704 24.9477 26.3457 24.4022 25.5664 24.1196C24.8063 23.8371 24.5337 24.3047 24.4654 24.3047C24.3973 24.3047 24.3484 24.4703 24.3484 24.4703C24.3484 24.4703 25.1962 20.9437 22.7313 20.9437C21.1921 20.9437 19.0681 22.6291 18.016 24.1488C16.8199 24.7997 15.6248 25.4525 14.4308 26.1071C13.8562 26.4286 13.2618 26.7502 12.7065 27.0521C12.6674 27.0132 12.6286 26.9643 12.5895 26.9255C9.60833 23.7397 4.09433 21.4892 4.32812 17.2124C4.41587 15.6536 4.95156 11.5618 14.918 6.59328C23.1209 2.55012 29.6484 3.67038 30.7785 6.15474C32.3956 9.70107 27.2811 16.2869 18.8051 17.2415C15.5707 17.6021 13.8755 16.355 13.447 15.8874C12.9988 15.4002 12.9305 15.3709 12.7648 15.4685C12.4922 15.6148 12.6674 16.0531 12.7648 16.3063C13.0182 16.9686 14.0606 18.1378 15.8239 18.7127C17.3827 19.2192 21.1725 19.5018 25.7611 17.7287C30.8953 15.7412 34.9092 10.2173 33.7304 5.5898C32.5515 0.893949 24.7577 -0.655038 17.3827 1.96554C12.9988 3.52455 8.24446 5.97945 4.82494 9.17499C0.762354 12.9743 0.119277 16.2771 0.382316 17.6606C1.3275 22.5706 8.09842 25.7661 10.8067 28.1335C10.6703 28.2114 10.5435 28.2797 10.4365 28.3382C9.08226 29.0103 3.91883 31.7088 2.63288 34.5634C1.17164 37.7978 2.86688 40.1167 3.98715 40.4282C7.46516 41.3928 11.0405 39.6587 12.9597 36.7943C14.8789 33.9302 14.6452 30.2085 13.7587 28.5037C13.7489 28.4843 13.7392 28.4646 13.7196 28.4452C14.0704 28.2406 14.4308 28.0263 14.7816 27.8217C15.4263 27.4406 16.0792 27.0735 16.7399 26.7207C16.4085 27.6268 16.1649 28.7082 16.0481 30.267C15.9019 32.0987 16.6519 34.4757 17.6359 35.4108C18.0745 35.8203 18.5907 35.8299 18.9221 35.8299C20.0716 35.8299 20.5881 34.8751 21.1628 33.745C21.8642 32.3617 22.4975 30.7542 22.4975 30.7542C22.4975 30.7542 21.7084 35.0993 23.8517 35.0993C24.631 35.0993 25.4202 34.086 25.7709 33.5698V33.5794C25.7709 33.5794 25.7904 33.5501 25.8294 33.482C25.9074 33.3554 25.9561 33.2773 25.9561 33.2773V33.258C26.2678 32.7123 26.9694 31.475 28.0117 29.4194C29.3561 26.7696 30.6519 23.4573 30.6519 23.4573C30.6519 23.4573 30.7689 24.2658 31.1682 25.6103C31.4022 26.3994 31.889 27.2664 32.2788 28.1042C31.9671 28.5428 31.7722 28.7862 31.7722 28.7862L31.782 28.796C31.5286 29.1271 31.2559 29.4875 30.9538 29.8385C29.8918 31.1048 28.6255 32.5567 28.45 32.9754C28.2453 33.4722 28.2942 33.8328 28.684 34.1251C28.9665 34.3394 29.4729 34.3685 29.9894 34.3394C30.9442 34.2711 31.6163 34.0373 31.9475 33.8913C32.4639 33.7062 33.0679 33.4235 33.6329 33.0046C34.6754 32.2349 35.3085 31.1341 35.2502 29.6827C35.2209 28.8837 34.9579 28.0848 34.6364 27.3345C34.7339 27.1983 34.8215 27.0619 34.919 26.9255C36.5654 24.519 37.8417 21.8788 37.8417 21.8788C37.8417 21.8788 37.9587 22.6874 38.358 24.032C38.5529 24.714 38.9524 25.4544 39.303 26.1752C37.754 27.4321 36.7992 28.8933 36.4582 29.8481C35.8446 31.6213 36.3218 32.42 37.2279 32.6051C37.637 32.6929 38.2215 32.498 38.6503 32.3128C39.1958 32.1376 39.8389 31.8357 40.4527 31.3873C41.4952 30.6178 42.4985 29.546 42.44 28.0946C42.4108 27.4321 42.2355 26.7792 41.9919 26.1459C43.307 25.6006 45.0023 25.2985 47.1649 25.5518C51.8024 26.0973 52.7182 28.9907 52.5427 30.2087C52.3674 31.4264 51.3932 32.0889 51.0718 32.2934C50.7501 32.4982 50.6431 32.5663 50.6724 32.7123C50.7112 32.9267 50.8671 32.9171 51.1399 32.878C51.52 32.8099 53.5756 31.8939 53.6632 29.6532C53.8094 26.789 51.0814 23.6618 46.259 23.691ZM10.4852 35.752C8.94583 37.4276 6.80265 38.0609 5.8771 37.5252C4.88344 36.9502 5.27309 34.4757 7.16305 32.7027C8.31257 31.6213 9.79344 30.6176 10.7775 30.004C11.0015 29.8676 11.3328 29.6728 11.7323 29.4292C11.8004 29.3902 11.8395 29.3707 11.8395 29.3707L12.0733 29.2245C12.7648 31.7575 12.1025 33.9887 10.4852 35.752ZM21.6889 28.1335C21.153 29.4391 20.0328 32.7806 19.3508 32.5955C18.7662 32.4397 18.4056 29.9066 19.2338 27.4028C19.6527 26.1459 20.5392 24.6456 21.0557 24.0613C21.8935 23.1259 22.819 22.814 23.043 23.1942C23.3257 23.691 22.0201 27.3151 21.6889 28.1335ZM30.9344 32.5565C30.7102 32.6735 30.496 32.7514 30.3985 32.6929C30.3304 32.6538 30.496 32.498 30.496 32.498C30.496 32.498 31.6554 31.2511 32.1131 30.6859C32.3764 30.3548 32.6879 29.9651 33.0193 29.5266V29.6532C33.0193 31.1439 31.5772 32.1474 30.9342 32.5565H30.9344ZM38.0657 30.9295C37.9 30.8125 37.9293 30.4229 38.4846 29.2051C38.699 28.7277 39.2054 27.9289 40.0726 27.1592C40.17 27.471 40.2383 27.7731 40.2285 28.0555C40.2187 29.9359 38.8744 30.6373 38.0657 30.9295Z" fill="#C7C8C9"/>
</svg>
