<svg width="40" height="41" viewBox="0 0 40 41" fill="none" xmlns="http://www.w3.org/2000/svg">
<path d="M0 20.6965V40.6965H40V0.696533H0V20.6965ZM32.2325 19.1015C33.1914 19.3273 34.0629 19.8298 34.7387 20.5465C35.1037 20.9365 35.65 21.6528 35.6962 21.829C35.7087 21.8815 33.9712 23.0465 32.9162 23.6978C32.8775 23.724 32.7212 23.5615 32.5512 23.3065C32.0375 22.5578 31.4962 22.2328 30.67 22.174C29.4587 22.0953 28.6775 22.7278 28.6837 23.789C28.6774 24.0487 28.7354 24.3059 28.8525 24.5378C29.12 25.0915 29.6212 25.4228 31.17 26.094C34.035 27.324 35.2587 28.1378 36.02 29.2903C36.8725 30.579 37.0612 32.6365 36.4887 34.1728C35.8512 35.8328 34.275 36.9653 32.0612 37.3365C31.3775 37.4603 29.75 37.4403 29.0137 37.304C27.4062 37.0178 25.8825 36.2228 24.945 35.1815C24.5737 34.7778 23.8575 33.7165 23.9037 33.6453C23.9237 33.619 24.0862 33.5153 24.2687 33.4103L25.7537 32.5503L26.9062 31.8803L27.1475 32.2378C27.4862 32.7515 28.2212 33.4553 28.665 33.689C29.9412 34.3665 31.6925 34.269 32.5587 33.494C32.91 33.2015 33.1062 32.7515 33.08 32.2965C33.08 31.834 33.0212 31.6265 32.78 31.2803C32.4675 30.8378 31.8362 30.4603 30.0325 29.679C27.9687 28.7865 27.0762 28.2403 26.27 27.3615C25.7624 26.7831 25.3871 26.101 25.17 25.3628C25.02 24.7965 24.9812 23.3765 25.0987 22.8103C25.5225 20.8115 27.0325 19.4253 29.2 19.0153C29.9037 18.879 31.5437 18.9303 32.2337 19.1003L32.2325 19.1015ZM22.845 20.7753L22.8575 22.409H17.6487V37.2078H13.9637V22.409H8.7625V20.8078C8.7625 19.9153 8.7825 19.174 8.8075 19.154C8.8275 19.1278 11.9912 19.1153 15.8325 19.1215L22.825 19.1415L22.845 20.7753Z" fill="#56575A"/>
<path d="M0 20.6965V40.6965H40V0.696533H0V20.6965ZM32.2325 19.1015C33.1914 19.3273 34.0629 19.8298 34.7387 20.5465C35.1037 20.9365 35.65 21.6528 35.6962 21.829C35.7087 21.8815 33.9712 23.0465 32.9162 23.6978C32.8775 23.724 32.7212 23.5615 32.5512 23.3065C32.0375 22.5578 31.4962 22.2328 30.67 22.174C29.4587 22.0953 28.6775 22.7278 28.6837 23.789C28.6774 24.0487 28.7354 24.3059 28.8525 24.5378C29.12 25.0915 29.6212 25.4228 31.17 26.094C34.035 27.324 35.2587 28.1378 36.02 29.2903C36.8725 30.579 37.0612 32.6365 36.4887 34.1728C35.8512 35.8328 34.275 36.9653 32.0612 37.3365C31.3775 37.4603 29.75 37.4403 29.0137 37.304C27.4062 37.0178 25.8825 36.2228 24.945 35.1815C24.5737 34.7778 23.8575 33.7165 23.9037 33.6453C23.9237 33.619 24.0862 33.5153 24.2687 33.4103L25.7537 32.5503L26.9062 31.8803L27.1475 32.2378C27.4862 32.7515 28.2212 33.4553 28.665 33.689C29.9412 34.3665 31.6925 34.269 32.5587 33.494C32.91 33.2015 33.1062 32.7515 33.08 32.2965C33.08 31.834 33.0212 31.6265 32.78 31.2803C32.4675 30.8378 31.8362 30.4603 30.0325 29.679C27.9687 28.7865 27.0762 28.2403 26.27 27.3615C25.7624 26.7831 25.3871 26.101 25.17 25.3628C25.02 24.7965 24.9812 23.3765 25.0987 22.8103C25.5225 20.8115 27.0325 19.4253 29.2 19.0153C29.9037 18.879 31.5437 18.9303 32.2337 19.1003L32.2325 19.1015ZM22.845 20.7753L22.8575 22.409H17.6487V37.2078H13.9637V22.409H8.7625V20.8078C8.7625 19.9153 8.7825 19.174 8.8075 19.154C8.8275 19.1278 11.9912 19.1153 15.8325 19.1215L22.825 19.1415L22.845 20.7753Z" fill="#C7C8C9"/>
</svg>
