<svg width="50" height="41" viewBox="0 0 50 41" fill="none" xmlns="http://www.w3.org/2000/svg">
<path d="M10.3844 0.696533C7.53111 0.696533 5.42222 3.2049 5.51778 5.92305C5.60667 8.5363 5.48889 11.9195 4.64 14.68C3.78889 17.4473 2.35111 19.2013 0 19.4267V21.9663C2.35111 22.1917 3.78889 23.9458 4.64 26.713C5.48889 29.4714 5.60667 32.8568 5.51556 35.4678C5.42222 38.1882 7.53111 40.6965 10.3867 40.6965H39.6178C42.4711 40.6965 44.5822 38.1882 44.4889 35.4678C44.3978 32.8568 44.5156 29.4714 45.3622 26.713C46.2156 23.9458 47.6511 22.1917 50 21.9663V19.4267C47.6489 19.2013 46.2156 17.4473 45.3622 14.68C44.5156 11.9217 44.3978 8.5363 44.4889 5.92305C44.5822 3.2049 42.4711 0.696533 39.6178 0.696533H10.3844ZM33.8978 25.3183C33.8978 29.063 31.1178 31.3348 26.5022 31.3348H18.6444C18.5331 31.3351 18.4227 31.3133 18.3198 31.2707C18.2168 31.2281 18.1232 31.1655 18.0443 31.0865C17.9655 31.0076 17.9029 30.9137 17.8602 30.8104C17.8175 30.7071 17.7956 30.5964 17.7956 30.4845V10.9085C17.7956 10.7967 17.8175 10.6859 17.8602 10.5826C17.9029 10.4793 17.9655 10.3855 18.0443 10.3065C18.1232 10.2275 18.2168 10.165 18.3198 10.1224C18.4227 10.0798 18.5331 10.058 18.6444 10.0583H26.4556C30.3044 10.0583 32.8311 12.1516 32.8311 15.3674C32.8311 17.6213 31.1311 19.6432 28.9667 19.9958V20.1141C31.9133 20.4377 33.8978 22.4885 33.8978 25.3183ZM25.6444 12.7541H21.1644V19.1098H24.9378C27.8556 19.1098 29.4622 17.9315 29.4622 15.8226C29.4622 13.8476 28.08 12.7563 25.6444 12.7563V12.7541ZM21.1644 21.6316V28.6367H25.8089C28.8467 28.6367 30.4533 27.4116 30.4533 25.1107C30.4533 22.8121 28.8022 21.6316 25.6133 21.6316H21.1644Z" fill="#56575A"/>
<path d="M10.3844 0.696533C7.53111 0.696533 5.42222 3.2049 5.51778 5.92305C5.60667 8.5363 5.48889 11.9195 4.64 14.68C3.78889 17.4473 2.35111 19.2013 0 19.4267V21.9663C2.35111 22.1917 3.78889 23.9458 4.64 26.713C5.48889 29.4714 5.60667 32.8568 5.51556 35.4678C5.42222 38.1882 7.53111 40.6965 10.3867 40.6965H39.6178C42.4711 40.6965 44.5822 38.1882 44.4889 35.4678C44.3978 32.8568 44.5156 29.4714 45.3622 26.713C46.2156 23.9458 47.6511 22.1917 50 21.9663V19.4267C47.6489 19.2013 46.2156 17.4473 45.3622 14.68C44.5156 11.9217 44.3978 8.5363 44.4889 5.92305C44.5822 3.2049 42.4711 0.696533 39.6178 0.696533H10.3844ZM33.8978 25.3183C33.8978 29.063 31.1178 31.3348 26.5022 31.3348H18.6444C18.5331 31.3351 18.4227 31.3133 18.3198 31.2707C18.2168 31.2281 18.1232 31.1655 18.0443 31.0865C17.9655 31.0076 17.9029 30.9137 17.8602 30.8104C17.8175 30.7071 17.7956 30.5964 17.7956 30.4845V10.9085C17.7956 10.7967 17.8175 10.6859 17.8602 10.5826C17.9029 10.4793 17.9655 10.3855 18.0443 10.3065C18.1232 10.2275 18.2168 10.165 18.3198 10.1224C18.4227 10.0798 18.5331 10.058 18.6444 10.0583H26.4556C30.3044 10.0583 32.8311 12.1516 32.8311 15.3674C32.8311 17.6213 31.1311 19.6432 28.9667 19.9958V20.1141C31.9133 20.4377 33.8978 22.4885 33.8978 25.3183ZM25.6444 12.7541H21.1644V19.1098H24.9378C27.8556 19.1098 29.4622 17.9315 29.4622 15.8226C29.4622 13.8476 28.08 12.7563 25.6444 12.7563V12.7541ZM21.1644 21.6316V28.6367H25.8089C28.8467 28.6367 30.4533 27.4116 30.4533 25.1107C30.4533 22.8121 28.8022 21.6316 25.6133 21.6316H21.1644Z" fill="#C7C8C9"/>
</svg>
